<?xml version="1.0" encoding="utf-8"?>
<!-- Generator: Adobe Illustrator 24.0.2, SVG Export Plug-In . SVG Version: 6.00 Build 0)  -->
<svg version="1.1" id="Layer_1" xmlns="http://www.w3.org/2000/svg" xmlns:xlink="http://www.w3.org/1999/xlink" x="0px" y="0px"
	 viewBox="0 0 16 16" style="enable-background:new 0 0 16 16;" xml:space="preserve">
<style type="text/css">
	.st0{fill:#0A7151;}
</style>
<path class="st0" d="M5.8,1.1C6,1.2,6.1,1.5,5.9,1.8c0,0,0,0,0,0L3.4,6h9.2l-2.5-4.2C9.9,1.5,10,1.2,10.2,1.1s0.5-0.1,0.7,0.2
	L13.8,6h1.7C15.8,6,16,6.2,16,6.5v1C16,7.8,15.8,8,15.5,8h-15C0.2,8,0,7.8,0,7.5v-1C0,6.2,0.2,6,0.5,6h1.7l2.9-4.8
	C5.2,1,5.5,0.9,5.8,1.1C5.8,1.1,5.8,1.1,5.8,1.1L5.8,1.1z M3.4,15L1.9,9h-1l1.5,6.4C2.6,15.8,2.9,16,3.2,16h9.6
	c0.3,0,0.6-0.2,0.7-0.6L15.1,9h-1l-1.5,6H3.4L3.4,15z"/>
</svg>
