<?xml version="1.0" encoding="utf-8"?>
<!-- Generator: Adobe Illustrator 24.0.2, SVG Export Plug-In . SVG Version: 6.00 Build 0)  -->
<svg version="1.1" id="Layer_1" xmlns="http://www.w3.org/2000/svg" xmlns:xlink="http://www.w3.org/1999/xlink" x="0px" y="0px"
	 viewBox="0 0 16 16" style="enable-background:new 0 0 16 16;" xml:space="preserve">
<style type="text/css">
	.st0{fill:#0A7151;}
</style>
<path class="st0" d="M5,8c0-1.7,2.3-3,4-3V4C6.8,4,5,5.8,5,8z"/>
<path class="st0" d="M12.3,3h2C15.3,3,16,3.7,16,4.7v6.7c0,0.9-0.7,1.7-1.7,1.7h-2c-1,0.7-2.1,1-3.3,1c-1.2,0-2.3-0.3-3.3-1h-4
	C0.7,13,0,12.3,0,11.3V4.7C0,3.7,0.7,3,1.7,3H2c0-0.6,0.4-1,1-1h1c0.6,0,1,0.4,1,1h0.7c1-0.7,2.1-1,3.3-1C10.2,2,11.4,2.4,12.3,3z
	 M2,4.5C2,4.2,1.8,4,1.5,4S1,4.2,1,4.5S1.2,5,1.5,5S2,4.8,2,4.5z M14,8c0-2.8-2.2-5-5-5S4,5.2,4,8s2.2,5,5,5S14,10.8,14,8z"/>
</svg>
