<?xml version="1.0" encoding="utf-8"?>
<!-- Generator: Adobe Illustrator 24.0.2, SVG Export Plug-In . SVG Version: 6.00 Build 0)  -->
<svg version="1.1" id="Layer_1" xmlns="http://www.w3.org/2000/svg" xmlns:xlink="http://www.w3.org/1999/xlink" x="0px" y="0px"
	 viewBox="0 0 16 16" style="enable-background:new 0 0 16 16;" xml:space="preserve">
<style type="text/css">
	.st0{fill:#0A7151;}
</style>
<path class="st0" d="M1,2.5C1,1.7,1.7,1,2.5,1h3C6.3,1,7,1.7,7,2.5v3C7,6.3,6.3,7,5.5,7h-3C1.7,7,1,6.3,1,5.5V2.5z M2.5,2
	C2.2,2,2,2.2,2,2.5v3C2,5.8,2.2,6,2.5,6h3C5.8,6,6,5.8,6,5.5v-3C6,2.2,5.8,2,5.5,2H2.5z M9,2.5C9,1.7,9.7,1,10.5,1h3
	C14.3,1,15,1.7,15,2.5v3C15,6.3,14.3,7,13.5,7h-3C9.7,7,9,6.3,9,5.5V2.5z M10.5,2C10.2,2,10,2.2,10,2.5v3C10,5.8,10.2,6,10.5,6h3
	C13.8,6,14,5.8,14,5.5v-3C14,2.2,13.8,2,13.5,2H10.5z M1,10.5C1,9.7,1.7,9,2.5,9h3C6.3,9,7,9.7,7,10.5v3C7,14.3,6.3,15,5.5,15h-3
	C1.7,15,1,14.3,1,13.5V10.5z M2.5,10C2.2,10,2,10.2,2,10.5v3C2,13.8,2.2,14,2.5,14h3C5.8,14,6,13.8,6,13.5v-3C6,10.2,5.8,10,5.5,10
	H2.5z M9,10.5C9,9.7,9.7,9,10.5,9h3c0.8,0,1.5,0.7,1.5,1.5v3c0,0.8-0.7,1.5-1.5,1.5h-3C9.7,15,9,14.3,9,13.5V10.5z M10.5,10
	c-0.3,0-0.5,0.2-0.5,0.5v3c0,0.3,0.2,0.5,0.5,0.5h3c0.3,0,0.5-0.2,0.5-0.5v-3c0-0.3-0.2-0.5-0.5-0.5H10.5z"/>
</svg>
